HIERARCHY
ROOT Hips
{
  OFFSET 3.92544 6.39728 0
  CHANNELS 6 Xposition Yposition Zposition Zrotation Xrotation Yrotation
  JOINT BN_Spine_01
  {
    OFFSET 5.06197 -0.168311 0
    CHANNELS 6 Xposition Yposition Zposition Zrotation Xrotation Yrotation
    JOINT BN_Spine_02
    {
      OFFSET 14.8952 0 0
      CHANNELS 6 Xposition Yposition Zposition Zrotation Xrotation Yrotation
      JOINT BN_Spine_03
      {
        OFFSET 14.3786 0 0
        CHANNELS 6 Xposition Yposition Zposition Zrotation Xrotation Yrotation
        JOINT BN__Neck_01
        {
          OFFSET 15.3325 0 0
          CHANNELS 6 Xposition Yposition Zposition Zrotation Xrotation Yrotation
          JOINT BN__Neck_02
          {
            OFFSET 11.0839 0 0
            CHANNELS 6 Xposition Yposition Zposition Zrotation Xrotation Yrotation
            JOINT BN__Neck_R_01
            {
              OFFSET 3.85383 1.1973 3.491
              CHANNELS 6 Xposition Yposition Zposition Zrotation Xrotation Yrotation
              End Site
              {
                OFFSET 0 0 0
              }
            }
            JOINT BN__Neck_L_01
            {
              OFFSET 3.85383 1.1973 -3.49098
              CHANNELS 6 Xposition Yposition Zposition Zrotation Xrotation Yrotation
              End Site
              {
                OFFSET 0 0 0
              }
            }
            JOINT BN_Head_01
            {
              OFFSET 9.67523 0 0
              CHANNELS 6 Xposition Yposition Zposition Zrotation Xrotation Yrotation
              JOINT BN_Mouth_01
              {
                OFFSET 1.08197 -0.588672 0
                CHANNELS 6 Xposition Yposition Zposition Zrotation Xrotation Yrotation
                JOINT BN_Tongue_01
                {
                  OFFSET 2.17792 0.065941 0
                  CHANNELS 6 Xposition Yposition Zposition Zrotation Xrotation Yrotation
                  JOINT BN_Tongue_02
                  {
                    OFFSET 3.80658 -0.000201226 0
                    CHANNELS 6 Xposition Yposition Zposition Zrotation Xrotation Yrotation
                    End Site
                    {
                      OFFSET 0 0 0
                    }
                  }
                }
              }
            }
          }
        }
      }
    }
  }
  JOINT BN_Tail_01
  {
    OFFSET 4.67587 -0.164094 0
    CHANNELS 6 Xposition Yposition Zposition Zrotation Xrotation Yrotation
    JOINT BN_Tail_02
    {
      OFFSET 13.1147 2.52724e-005 0
      CHANNELS 6 Xposition Yposition Zposition Zrotation Xrotation Yrotation
      JOINT BN_Tail_03
      {
        OFFSET 13.4995 9.10759e-005 0
        CHANNELS 6 Xposition Yposition Zposition Zrotation Xrotation Yrotation
        JOINT BN_Tail_04
        {
          OFFSET 13.2851 0 0
          CHANNELS 6 Xposition Yposition Zposition Zrotation Xrotation Yrotation
          JOINT BN_Tail_05
          {
            OFFSET 14.6528 0.000106812 0
            CHANNELS 6 Xposition Yposition Zposition Zrotation Xrotation Yrotation
            JOINT BN_Tail_06
            {
              OFFSET 13.1048 0 0
              CHANNELS 6 Xposition Yposition Zposition Zrotation Xrotation Yrotation
              JOINT BN_Tail_07
              {
                OFFSET 11.869 0.000113964 0
                CHANNELS 6 Xposition Yposition Zposition Zrotation Xrotation Yrotation
                End Site
                {
                  OFFSET 0 0 0
                }
              }
            }
          }
        }
      }
    }
  }
}
MOTION
Frames:	4
Frame Time:	0.0333333
0 4 2.41446e-007 0 0 -0 4.98225 -0.165661 4.5759e-012 0.996393 -0.0171233 57.3463 14.6606 2.65284e-007 -1.08773e-006 1.29064 4.02113 -55.5158 14.1522 4.64476e-007 5.10603e-007 -4.40026 -8.03042 -41.6384 15.0911 1.35249e-007 1.59812e-006 12.1904 14.6577 22.3119 10.9093 4.31758e-007 3.03869e-006 -8.23113 -0.940667 4.65882 3.01571 3.42917 -3.53546 -87.4279 -9.71681 -71.5328 3.94297 2.9942 5.64642 92.057 1.15132 101.681 9.52287 3.57476e-007 1.09726e-006 -9.58972 0.51292 4.66647 1.06491 -0.579398 -6.15662e-007 -0.470037 1.04203e-005 -1.71051e-005 4.47646 0.216099 -0.275514 4.14746 -0.655676 -6.18674 6.08535 -0.180249 -0.371748 -53.6845 6.83394 -19.6359 4.60224 -0.16151 3.89377e-012 -178.948 0.0365244 -33.1534 12.9082 8.13795e-008 1.15212e-006 -1.0503 -0.000485396 41.387 13.2869 -2.68562e-007 1.6384e-006 1.51013 0.124682 39.9502 13.0759 -1.82132e-007 1.28628e-006 3.34008 2.18486 49.8491 14.4221 8.56517e-007 -8.85998e-006 1.73928 -0.881341 49.6567 12.8984 -1.04801e-007 4.04689e-006 -1.01165 3.51093 -61.3921 11.6821 -1.69752e-007 -2.15488e-006 -0.884579 3.51935 -17.3256 
0 4 2.41446e-007 0 0 -0 4.98225 -0.165661 5.20998e-012 0.997532 -0.0164846 57.3448 14.6582 -1.99929e-006 6.50277e-007 1.29206 4.02069 -55.5555 14.1498 4.20335e-006 7.16042e-007 -4.36262 -8.03414 -41.577 15.0881 5.73186e-006 -1.33341e-006 12.1878 14.6571 22.3127 10.9063 1.88817e-007 1.77116e-006 -8.25047 -0.933175 4.71324 3.01469 3.42798 -3.53424 -87.4277 -9.71671 -71.5333 3.94163 2.99317 5.64449 92.0567 1.1513 101.681 9.51962 9.19687e-006 8.83261e-007 -9.69996 0.510933 4.69857 1.06453 -0.579186 -5.46245e-007 -0.360153 3.73069e-005 -1.69469e-005 4.38865 0.209117 -0.266993 4.01379 -0.608616 -6.06337 5.98933 -0.17447 -0.360552 -47.0374 6.6063 -17.5714 4.60224 -0.16151 4.36692e-012 -178.948 0.0365745 -33.154 12.9082 2.4525e-008 -1.96042e-006 -1.05032 -0.000499769 41.3894 13.2847 1.55084e-007 2.89354e-006 1.51012 0.124693 39.95 13.0727 9.51013e-008 2.44575e-006 3.34 2.18508 49.8493 14.4185 6.43093e-007 -4.72352e-006 1.7253 -0.90352 49.4588 12.8952 3.26551e-007 -8.46208e-007 -1.00954 3.5076 -61.3916 11.6783 -3.87486e-007 -2.49678e-006 -0.889695 3.5181 -17.3413 
0 4 2.41446e-007 0 0 -0 4.98225 -0.165661 -6.2506e-012 0.995319 -0.0178174 57.3477 14.6606 -3.82731e-007 -2.85779e-006 1.29347 4.02024 -55.6023 14.1522 1.1084e-006 -2.5914e-006 -4.32045 -8.03981 -41.5113 15.0911 1.10742e-006 4.7105e-007 12.1754 14.6526 22.3248 10.9093 1.75696e-006 -6.15694e-009 -8.26441 -0.926195 4.75561 3.01571 3.42917 -3.53545 -87.4279 -9.71684 -71.533 3.94297 2.9942 5.64641 92.0571 1.15134 101.681 9.52286 1.056e-006 -5.00802e-007 -9.80329 0.51287 4.73111 1.06491 -0.579397 -8.38371e-007 -0.2524 -1.71765e-005 5.66629e-006 4.02311 0.183984 -0.226599 4.47213 -0.566654 -5.14825 5.59212 -0.150953 -0.313597 -9.5271 5.66722 -7.55841 4.60224 -0.16151 -6.87839e-012 -178.949 0.0366156 -33.1577 12.9082 1.51101e-007 1.73128e-006 -1.0503 -0.000532116 41.3947 13.2869 1.52119e-007 -7.60477e-007 1.51015 0.124623 39.9431 13.0759 1.45512e-007 1.30511e-007 3.33826 2.18871 49.8583 14.422 5.52595e-007 -5.61429e-006 1.71234 -0.923113 49.2449 12.8984 2.67754e-007 3.39572e-007 -1.01454 3.51431 -61.3799 11.6821 -1.11587e-006 -2.12959e-007 -0.872814 3.51358 -17.445 
0 4 2.41446e-007 0 0 -0 4.98225 -0.165661 4.57585e-012 0.992167 -0.0174272 57.3507 14.6606 -2.58757e-007 -1.03776e-006 1.29854 4.01793 -55.6538 14.1522 5.58974e-007 -2.30297e-006 -4.27243 -8.04356 -41.436 15.0911 2.07763e-007 -1.7614e-006 12.1508 14.643 22.3466 10.9093 5.25076e-007 -4.33451e-006 -8.27832 -0.92277 4.79418 3.01572 3.42917 -3.53546 -87.428 -9.71685 -71.5329 3.94297 2.9942 5.64642 92.0573 1.15135 101.681 9.52288 5.90508e-007 -4.55357e-006 -9.89947 0.511499 4.75965 1.06491 -0.579398 -7.55516e-007 -0.151531 1.32171e-006 2.08642e-005 3.45847 0.145167 -0.164461 5.09239 -0.526891 -3.9683 4.97779 -0.11625 -0.242857 28.8703 4.3647 2.59552 4.60224 -0.16151 3.89373e-012 -178.948 0.0363339 -33.1653 12.9082 -3.79365e-007 3.3042e-007 -1.05031 -0.000643419 41.4061 13.2869 -6.5528e-007 1.60461e-006 1.51016 0.124417 39.9279 13.0759 -2.64819e-007 1.32747e-006 3.338 2.18904 49.8761 14.4221 1.7634e-006 -7.34028e-006 1.69705 -0.948238 49.0083 12.8984 -2.57845e-007 1.97163e-006 -1.01299 3.51687 -61.3593 11.6821 -1.24503e-007 -3.49863e-006 -0.861444 3.50688 -17.6401 
